<svg width="32" height="32" viewBox="0 0 32 32" fill="none" xmlns="http://www.w3.org/2000/svg">
<g clip-path="url(#clip0_286_3836)">
<path d="M23.3402 28.0039C22.1025 28.0039 20.9155 27.5122 20.0403 26.6371C19.1652 25.7619 18.6735 24.5749 18.6735 23.3372C18.6735 22.0996 19.1652 20.9126 20.0403 20.0374C20.9155 19.1622 22.1025 18.6706 23.3402 18.6706C24.5778 18.6706 25.7648 19.1622 26.64 20.0374C27.5152 20.9126 28.0068 22.0996 28.0068 23.3372C28.0068 24.5749 27.5152 25.7619 26.64 26.6371C25.7648 27.5122 24.5778 28.0039 23.3402 28.0039ZM23.3402 25.3372C23.8706 25.3372 24.3793 25.1265 24.7544 24.7515C25.1295 24.3764 25.3402 23.8677 25.3402 23.3372C25.3402 22.8068 25.1295 22.2981 24.7544 21.923C24.3793 21.548 23.8706 21.3372 23.3402 21.3372C22.8097 21.3372 22.301 21.548 21.926 21.923C21.5509 22.2981 21.3402 22.8068 21.3402 23.3372C21.3402 23.8677 21.5509 24.3764 21.926 24.7515C22.301 25.1265 22.8097 25.3372 23.3402 25.3372ZM8.6735 13.3372C8.06067 13.3372 7.45383 13.2165 6.88765 12.982C6.32146 12.7475 5.80701 12.4037 5.37367 11.9704C4.94033 11.5371 4.59659 11.0226 4.36207 10.4564C4.12754 9.89024 4.00684 9.28341 4.00684 8.67057C4.00684 8.05774 4.12754 7.4509 4.36207 6.88472C4.59659 6.31853 4.94033 5.80408 5.37367 5.37074C5.80701 4.9374 6.32146 4.59366 6.88765 4.35914C7.45383 4.12461 8.06067 4.00391 8.6735 4.00391C9.91118 4.00391 11.0982 4.49557 11.9733 5.37074C12.8485 6.24591 13.3402 7.4329 13.3402 8.67057C13.3402 9.90825 12.8485 11.0952 11.9733 11.9704C11.0982 12.8456 9.91118 13.3372 8.6735 13.3372ZM8.6735 10.6706C8.93615 10.6706 9.19622 10.6188 9.43887 10.5183C9.68152 10.4178 9.902 10.2705 10.0877 10.0848C10.2734 9.89907 10.4208 9.67859 10.5213 9.43594C10.6218 9.19329 10.6735 8.93322 10.6735 8.67057C10.6735 8.40793 10.6218 8.14786 10.5213 7.90521C10.4208 7.66255 10.2734 7.44208 10.0877 7.25636C9.902 7.07064 9.68152 6.92332 9.43887 6.82281C9.19622 6.7223 8.93615 6.67057 8.6735 6.67057C8.14307 6.67057 7.63436 6.88129 7.25929 7.25636C6.88422 7.63143 6.6735 8.14014 6.6735 8.67057C6.6735 9.20101 6.88422 9.70971 7.25929 10.0848C7.63436 10.4599 8.14307 10.6706 8.6735 10.6706ZM25.4348 4.68924L27.3202 6.57591L6.57884 27.3172L4.6935 25.4319L25.4348 4.68924Z" fill="#006241"></path>
</g>
<defs>
<clipPath id="clip0_286_3836">
<rect width="32" height="32" fill="white"></rect>
</clipPath>
</defs>
</svg>