<svg width="32" height="32" viewBox="0 0 32 32" fill="none" xmlns="http://www.w3.org/2000/svg">
<g clip-path="url(#clip0_285_3819)">
<path d="M28.8 14.96L22.6666 10.0267V6.66667C22.6993 5.99326 22.4636 5.33437 22.0112 4.83449C21.5588 4.3346 20.9266 4.03451 20.2533 4H5.05331C4.38473 4.04128 3.75934 4.34431 3.31261 4.84344C2.86589 5.34258 2.6338 5.99762 2.66664 6.66667V20C2.65426 20.5295 2.79983 21.0506 3.08478 21.4971C3.36974 21.9435 3.78117 22.295 4.26664 22.5067C4.02108 23.1074 3.92538 23.7588 3.98779 24.4048C4.0502 25.0508 4.26885 25.6719 4.62487 26.2145C4.98089 26.7571 5.46358 27.2049 6.03131 27.5193C6.59903 27.8338 7.23473 28.0053 7.88356 28.0192C8.53239 28.0331 9.17486 27.889 9.75553 27.5991C10.3362 27.3093 10.8376 26.8826 11.2166 26.3557C11.5955 25.8289 11.8406 25.2177 11.9306 24.575C12.0206 23.9323 11.9529 23.2774 11.7333 22.6667H20.2133C19.994 23.2708 19.9236 23.919 20.0079 24.5561C20.0922 25.1933 20.3288 25.8008 20.6977 26.3271C21.0666 26.8535 21.5569 27.2832 22.1271 27.5798C22.6973 27.8765 23.3306 28.0314 23.9733 28.0314C24.616 28.0314 25.2493 27.8765 25.8195 27.5798C26.3897 27.2832 26.88 26.8535 27.2489 26.3271C27.6178 25.8008 27.8544 25.1933 27.9387 24.5561C28.0231 23.919 27.9526 23.2708 27.7333 22.6667H28C28.3536 22.6667 28.6927 22.5262 28.9428 22.2761C29.1928 22.0261 29.3333 21.687 29.3333 21.3333V16C29.3292 15.7975 29.2791 15.5986 29.1867 15.4184C29.0943 15.2382 28.962 15.0815 28.8 14.96ZM26.6666 16.64V20H22.6666V13.44L26.6666 16.64ZM9.33331 24C9.33331 24.2637 9.25511 24.5215 9.1086 24.7408C8.96209 24.96 8.75385 25.1309 8.51022 25.2318C8.26658 25.3328 7.99849 25.3592 7.73985 25.3077C7.48121 25.2563 7.24363 25.1293 7.05716 24.9428C6.87069 24.7563 6.74371 24.5188 6.69226 24.2601C6.64081 24.0015 6.66722 23.7334 6.76813 23.4898C6.86905 23.2461 7.03995 23.0379 7.25921 22.8914C7.47848 22.7449 7.73626 22.6667 7.99997 22.6667C8.35359 22.6667 8.69273 22.8071 8.94278 23.0572C9.19283 23.3072 9.33331 23.6464 9.33331 24ZM16 20H5.33331V6.66667H20V20H16ZM25.3333 24C25.3333 24.2637 25.2551 24.5215 25.1086 24.7408C24.9621 24.96 24.7539 25.1309 24.5102 25.2318C24.2666 25.3328 23.9985 25.3592 23.7399 25.3077C23.4812 25.2563 23.2436 25.1293 23.0572 24.9428C22.8707 24.7563 22.7437 24.5188 22.6923 24.2601C22.6408 24.0015 22.6672 23.7334 22.7681 23.4898C22.869 23.2461 23.0399 23.0379 23.2592 22.8914C23.4785 22.7449 23.7363 22.6667 24 22.6667C24.3536 22.6667 24.6927 22.8071 24.9428 23.0572C25.1928 23.3072 25.3333 23.6464 25.3333 24Z" fill="#006241"></path>
</g>
<defs>
<clipPath id="clip0_285_3819">
<rect width="32" height="32" fill="white"></rect>
</clipPath>
</defs>
</svg>